<?xml version="1.0" encoding="UTF-8"?>
<svg xmlns="http://www.w3.org/2000/svg" xmlns:xlink="http://www.w3.org/1999/xlink" viewBox="0 0 2269 2358.3" width="2269" height="2358.3">
  <title>Köln — land</title>
  <desc>Map data © OpenStreetMap contributors, ODbL 1.0</desc>
  <g id="land" fill="#F7F5EF" stroke="none">
    <g id="land__country">
      <path fill-rule="evenodd" d="M0 148.2l0 -148.2l227.33 0l0 148.2Z"/>
      <path fill-rule="evenodd" d="M0 404.2l0 -256l227.33 0l0 256Z"/>
      <path fill-rule="evenodd" d="M0 660.2l0 -256l227.33 0l0 256Z"/>
      <path fill-rule="evenodd" d="M0 916.2l0 -256l227.33 0l0 256Z"/>
      <path fill-rule="evenodd" d="M0 1172.2l0 -256l227.33 0l0 256Z"/>
      <path fill-rule="evenodd" d="M0 1428.2l0 -256l227.33 0l0 256Z"/>
      <path fill-rule="evenodd" d="M0 1684.2l0 -256l227.33 0l0 256Z"/>
      <path fill-rule="evenodd" d="M0 1940.2l0 -256l227.33 0l0 256Z"/>
      <path fill-rule="evenodd" d="M0 2196.2l0 -256l227.33 0l0 256Z"/>
      <path fill-rule="evenodd" d="M0 2358.3l0 -162.1l227.33 0l0 162.1Z"/>
      <path fill-rule="evenodd" d="M227.33 148.2l0 -148.2l256 0l0 148.2Z"/>
      <path fill-rule="evenodd" d="M227.33 404.2l0 -256l256 0l0 256Z"/>
      <path fill-rule="evenodd" d="M227.33 660.2l0 -256l256 0l0 256Z"/>
      <path fill-rule="evenodd" d="M227.33 916.2l0 -256l256 0l0 256Z"/>
      <path fill-rule="evenodd" d="M227.33 1172.2l0 -256l256 0l0 256Z"/>
      <path fill-rule="evenodd" d="M227.33 1428.2l0 -256l256 0l0 256Z"/>
      <path fill-rule="evenodd" d="M227.33 1684.2l0 -256l256 0l0 256Z"/>
      <path fill-rule="evenodd" d="M227.33 1940.2l0 -256l256 0l0 256Z"/>
      <path fill-rule="evenodd" d="M227.33 2196.2l0 -256l256 0l0 256Z"/>
      <path fill-rule="evenodd" d="M227.33 2358.3l0 -162.1l256 0l0 162.1Z"/>
      <path fill-rule="evenodd" d="M483.33 148.2l0 -148.2l256 0l0 148.2Z"/>
      <path fill-rule="evenodd" d="M483.33 404.2l0 -256l256 0l0 256Z"/>
      <path fill-rule="evenodd" d="M483.33 660.2l0 -256l256 0l0 256Z"/>
      <path fill-rule="evenodd" d="M483.33 916.2l0 -256l256 0l0 256Z"/>
      <path fill-rule="evenodd" d="M483.33 1172.2l0 -256l256 0l0 256Z"/>
      <path fill-rule="evenodd" d="M483.33 1428.2l0 -256l256 0l0 256Z"/>
      <path fill-rule="evenodd" d="M483.33 1684.2l0 -256l256 0l0 256Z"/>
      <path fill-rule="evenodd" d="M483.33 1940.2l0 -256l256 0l0 256Z"/>
      <path fill-rule="evenodd" d="M483.33 2196.2l0 -256l256 0l0 256Z"/>
      <path fill-rule="evenodd" d="M483.33 2358.3l0 -162.1l256 0l0 162.1Z"/>
      <path fill-rule="evenodd" d="M739.33 148.2l0 -148.2l256 0l0 148.2Z"/>
      <path fill-rule="evenodd" d="M739.33 404.2l0 -256l256 0l0 256Z"/>
      <path fill-rule="evenodd" d="M739.33 660.2l0 -256l256 0l0 256Z"/>
      <path fill-rule="evenodd" d="M739.33 916.2l0 -256l256 0l0 256Z"/>
      <path fill-rule="evenodd" d="M739.33 1172.2l0 -256l256 0l0 256Z"/>
      <path fill-rule="evenodd" d="M739.33 1428.2l0 -256l256 0l0 256Z"/>
      <path fill-rule="evenodd" d="M739.33 1684.2l0 -256l256 0l0 256Z"/>
      <path fill-rule="evenodd" d="M739.33 1940.2l0 -256l256 0l0 256Z"/>
      <path fill-rule="evenodd" d="M739.33 2196.2l0 -256l256 0l0 256Z"/>
      <path fill-rule="evenodd" d="M739.33 2358.3l0 -162.1l256 0l0 162.1Z"/>
      <path fill-rule="evenodd" d="M995.33 148.2l0 -148.2l256 0l0 148.2Z"/>
      <path fill-rule="evenodd" d="M995.33 404.2l0 -256l256 0l0 256Z"/>
      <path fill-rule="evenodd" d="M995.33 660.2l0 -256l256 0l0 256Z"/>
      <path fill-rule="evenodd" d="M995.33 916.2l0 -256l256 0l0 256Z"/>
      <path fill-rule="evenodd" d="M995.33 1172.2l0 -256l256 0l0 256Z"/>
      <path fill-rule="evenodd" d="M995.33 1428.2l0 -256l256 0l0 256Z"/>
      <path fill-rule="evenodd" d="M995.33 1684.2l0 -256l256 0l0 256Z"/>
      <path fill-rule="evenodd" d="M995.33 1940.2l0 -256l256 0l0 256Z"/>
      <path fill-rule="evenodd" d="M995.33 2196.2l0 -256l256 0l0 256Z"/>
      <path fill-rule="evenodd" d="M995.33 2358.3l0 -162.1l256 0l0 162.1Z"/>
      <path fill-rule="evenodd" d="M1251.33 148.2l0 -148.2l256 0l0 148.2Z"/>
      <path fill-rule="evenodd" d="M1251.33 404.2l0 -256l256 0l0 256Z"/>
      <path fill-rule="evenodd" d="M1251.33 660.2l0 -256l256 0l0 256Z"/>
      <path fill-rule="evenodd" d="M1251.33 916.2l0 -256l256 0l0 256Z"/>
      <path fill-rule="evenodd" d="M1251.33 1172.2l0 -256l256 0l0 256Z"/>
      <path fill-rule="evenodd" d="M1251.33 1428.2l0 -256l256 0l0 256Z"/>
      <path fill-rule="evenodd" d="M1251.33 1684.2l0 -256l256 0l0 256Z"/>
      <path fill-rule="evenodd" d="M1251.33 1940.2l0 -256l256 0l0 256Z"/>
      <path fill-rule="evenodd" d="M1251.33 2196.2l0 -256l256 0l0 256Z"/>
      <path fill-rule="evenodd" d="M1251.33 2358.3l0 -162.1l256 0l0 162.1Z"/>
      <path fill-rule="evenodd" d="M1507.33 148.2l0 -148.2l256 0l0 148.2Z"/>
      <path fill-rule="evenodd" d="M1507.33 404.2l0 -256l256 0l0 256Z"/>
      <path fill-rule="evenodd" d="M1507.33 660.2l0 -256l256 0l0 256Z"/>
      <path fill-rule="evenodd" d="M1507.33 916.2l0 -256l256 0l0 256Z"/>
      <path fill-rule="evenodd" d="M1507.33 1172.2l0 -256l256 0l0 256Z"/>
      <path fill-rule="evenodd" d="M1507.33 1428.2l0 -256l256 0l0 256Z"/>
      <path fill-rule="evenodd" d="M1507.33 1684.2l0 -256l256 0l0 256Z"/>
      <path fill-rule="evenodd" d="M1507.33 1940.2l0 -256l256 0l0 256Z"/>
      <path fill-rule="evenodd" d="M1507.33 2196.2l0 -256l256 0l0 256Z"/>
      <path fill-rule="evenodd" d="M1507.33 2358.3l0 -162.1l256 0l0 162.1Z"/>
      <path fill-rule="evenodd" d="M1763.33 148.2l0 -148.2l256 0l0 148.2Z"/>
      <path fill-rule="evenodd" d="M1763.33 404.2l0 -256l256 0l0 256Z"/>
      <path fill-rule="evenodd" d="M1763.33 660.2l0 -256l256 0l0 256Z"/>
      <path fill-rule="evenodd" d="M1763.33 916.2l0 -256l256 0l0 256Z"/>
      <path fill-rule="evenodd" d="M1763.33 1172.2l0 -256l256 0l0 256Z"/>
      <path fill-rule="evenodd" d="M1763.33 1428.2l0 -256l256 0l0 256Z"/>
      <path fill-rule="evenodd" d="M1763.33 1684.2l0 -256l256 0l0 256Z"/>
      <path fill-rule="evenodd" d="M1763.33 1940.2l0 -256l256 0l0 256Z"/>
      <path fill-rule="evenodd" d="M1763.33 2196.2l0 -256l256 0l0 256Z"/>
      <path fill-rule="evenodd" d="M1763.33 2358.3l0 -162.1l256 0l0 162.1Z"/>
      <path fill-rule="evenodd" d="M2019.33 148.2l0 -148.2l249.67 0l0 148.2Z"/>
      <path fill-rule="evenodd" d="M2019.33 404.2l0 -256l249.67 0l0 256Z"/>
      <path fill-rule="evenodd" d="M2019.33 660.2l0 -256l249.67 0l0 256Z"/>
      <path fill-rule="evenodd" d="M2019.33 916.2l0 -256l249.67 0l0 256Z"/>
      <path fill-rule="evenodd" d="M2019.33 1172.2l0 -256l249.67 0l0 256Z"/>
      <path fill-rule="evenodd" d="M2019.33 1428.2l0 -256l249.67 0l0 256Z"/>
      <path fill-rule="evenodd" d="M2019.33 1684.2l0 -256l249.67 0l0 256Z"/>
      <path fill-rule="evenodd" d="M2019.33 1940.2l0 -256l249.67 0l0 256Z"/>
      <path fill-rule="evenodd" d="M2019.33 2196.2l0 -256l249.67 0l0 256Z"/>
      <path fill-rule="evenodd" d="M2019.33 2358.3l0 -162.1l249.67 0l0 162.1Z"/>
    </g>
    <g id="land__state">
      <path fill-rule="evenodd" d="M0 148.2l0 -148.2l227.33 0l0 148.2Z"/>
      <path fill-rule="evenodd" d="M0 404.2l0 -256l227.33 0l0 256Z"/>
      <path fill-rule="evenodd" d="M0 660.2l0 -256l227.33 0l0 256Z"/>
      <path fill-rule="evenodd" d="M0 916.2l0 -256l227.33 0l0 256Z"/>
      <path fill-rule="evenodd" d="M0 1172.2l0 -256l227.33 0l0 256Z"/>
      <path fill-rule="evenodd" d="M0 1428.2l0 -256l227.33 0l0 256Z"/>
      <path fill-rule="evenodd" d="M0 1684.2l0 -256l227.33 0l0 256Z"/>
      <path fill-rule="evenodd" d="M0 1940.2l0 -256l227.33 0l0 256Z"/>
      <path fill-rule="evenodd" d="M0 2196.2l0 -256l227.33 0l0 256Z"/>
      <path fill-rule="evenodd" d="M0 2358.3l0 -162.1l227.33 0l0 162.1Z"/>
      <path fill-rule="evenodd" d="M227.33 148.2l0 -148.2l256 0l0 148.2Z"/>
      <path fill-rule="evenodd" d="M227.33 404.2l0 -256l256 0l0 256Z"/>
      <path fill-rule="evenodd" d="M227.33 660.2l0 -256l256 0l0 256Z"/>
      <path fill-rule="evenodd" d="M227.33 916.2l0 -256l256 0l0 256Z"/>
      <path fill-rule="evenodd" d="M227.33 1172.2l0 -256l256 0l0 256Z"/>
      <path fill-rule="evenodd" d="M227.33 1428.2l0 -256l256 0l0 256Z"/>
      <path fill-rule="evenodd" d="M227.33 1684.2l0 -256l256 0l0 256Z"/>
      <path fill-rule="evenodd" d="M227.33 1940.2l0 -256l256 0l0 256Z"/>
      <path fill-rule="evenodd" d="M227.33 2196.2l0 -256l256 0l0 256Z"/>
      <path fill-rule="evenodd" d="M227.33 2358.3l0 -162.1l256 0l0 162.1Z"/>
      <path fill-rule="evenodd" d="M483.33 148.2l0 -148.2l256 0l0 148.2Z"/>
      <path fill-rule="evenodd" d="M483.33 404.2l0 -256l256 0l0 256Z"/>
      <path fill-rule="evenodd" d="M483.33 660.2l0 -256l256 0l0 256Z"/>
      <path fill-rule="evenodd" d="M483.33 916.2l0 -256l256 0l0 256Z"/>
      <path fill-rule="evenodd" d="M483.33 1172.2l0 -256l256 0l0 256Z"/>
      <path fill-rule="evenodd" d="M483.33 1428.2l0 -256l256 0l0 256Z"/>
      <path fill-rule="evenodd" d="M483.33 1684.2l0 -256l256 0l0 256Z"/>
      <path fill-rule="evenodd" d="M483.33 1940.2l0 -256l256 0l0 256Z"/>
      <path fill-rule="evenodd" d="M483.33 2196.2l0 -256l256 0l0 256Z"/>
      <path fill-rule="evenodd" d="M483.33 2358.3l0 -162.1l256 0l0 162.1Z"/>
      <path fill-rule="evenodd" d="M739.33 148.2l0 -148.2l256 0l0 148.2Z"/>
      <path fill-rule="evenodd" d="M739.33 404.2l0 -256l256 0l0 256Z"/>
      <path fill-rule="evenodd" d="M739.33 660.2l0 -256l256 0l0 256Z"/>
      <path fill-rule="evenodd" d="M739.33 916.2l0 -256l256 0l0 256Z"/>
      <path fill-rule="evenodd" d="M739.33 1172.2l0 -256l256 0l0 256Z"/>
      <path fill-rule="evenodd" d="M739.33 1428.2l0 -256l256 0l0 256Z"/>
      <path fill-rule="evenodd" d="M739.33 1684.2l0 -256l256 0l0 256Z"/>
      <path fill-rule="evenodd" d="M739.33 1940.2l0 -256l256 0l0 256Z"/>
      <path fill-rule="evenodd" d="M739.33 2196.2l0 -256l256 0l0 256Z"/>
      <path fill-rule="evenodd" d="M739.33 2358.3l0 -162.1l256 0l0 162.1Z"/>
      <path fill-rule="evenodd" d="M995.33 148.2l0 -148.2l256 0l0 148.2Z"/>
      <path fill-rule="evenodd" d="M995.33 404.2l0 -256l256 0l0 256Z"/>
      <path fill-rule="evenodd" d="M995.33 660.2l0 -256l256 0l0 256Z"/>
      <path fill-rule="evenodd" d="M995.33 916.2l0 -256l256 0l0 256Z"/>
      <path fill-rule="evenodd" d="M995.33 1172.2l0 -256l256 0l0 256Z"/>
      <path fill-rule="evenodd" d="M995.33 1428.2l0 -256l256 0l0 256Z"/>
      <path fill-rule="evenodd" d="M995.33 1684.2l0 -256l256 0l0 256Z"/>
      <path fill-rule="evenodd" d="M995.33 1940.2l0 -256l256 0l0 256Z"/>
      <path fill-rule="evenodd" d="M995.33 2196.2l0 -256l256 0l0 256Z"/>
      <path fill-rule="evenodd" d="M995.33 2358.3l0 -162.1l256 0l0 162.1Z"/>
      <path fill-rule="evenodd" d="M1251.33 148.2l0 -148.2l256 0l0 148.2Z"/>
      <path fill-rule="evenodd" d="M1251.33 404.2l0 -256l256 0l0 256Z"/>
      <path fill-rule="evenodd" d="M1251.33 660.2l0 -256l256 0l0 256Z"/>
      <path fill-rule="evenodd" d="M1251.33 916.2l0 -256l256 0l0 256Z"/>
      <path fill-rule="evenodd" d="M1251.33 1172.2l0 -256l256 0l0 256Z"/>
      <path fill-rule="evenodd" d="M1251.33 1428.2l0 -256l256 0l0 256Z"/>
      <path fill-rule="evenodd" d="M1251.33 1684.2l0 -256l256 0l0 256Z"/>
      <path fill-rule="evenodd" d="M1251.33 1940.2l0 -256l256 0l0 256Z"/>
      <path fill-rule="evenodd" d="M1251.33 2196.2l0 -256l256 0l0 256Z"/>
      <path fill-rule="evenodd" d="M1251.33 2358.3l0 -162.1l256 0l0 162.1Z"/>
      <path fill-rule="evenodd" d="M1507.33 148.2l0 -148.2l256 0l0 148.2Z"/>
      <path fill-rule="evenodd" d="M1507.33 404.2l0 -256l256 0l0 256Z"/>
      <path fill-rule="evenodd" d="M1507.33 660.2l0 -256l256 0l0 256Z"/>
      <path fill-rule="evenodd" d="M1507.33 916.2l0 -256l256 0l0 256Z"/>
      <path fill-rule="evenodd" d="M1507.33 1172.2l0 -256l256 0l0 256Z"/>
      <path fill-rule="evenodd" d="M1507.33 1428.2l0 -256l256 0l0 256Z"/>
      <path fill-rule="evenodd" d="M1507.33 1684.2l0 -256l256 0l0 256Z"/>
      <path fill-rule="evenodd" d="M1507.33 1940.2l0 -256l256 0l0 256Z"/>
      <path fill-rule="evenodd" d="M1507.33 2196.2l0 -256l256 0l0 256Z"/>
      <path fill-rule="evenodd" d="M1507.33 2358.3l0 -162.1l256 0l0 162.1Z"/>
      <path fill-rule="evenodd" d="M1763.33 148.2l0 -148.2l256 0l0 148.2Z"/>
      <path fill-rule="evenodd" d="M1763.33 404.2l0 -256l256 0l0 256Z"/>
      <path fill-rule="evenodd" d="M1763.33 660.2l0 -256l256 0l0 256Z"/>
      <path fill-rule="evenodd" d="M1763.33 916.2l0 -256l256 0l0 256Z"/>
      <path fill-rule="evenodd" d="M1763.33 1172.2l0 -256l256 0l0 256Z"/>
      <path fill-rule="evenodd" d="M1763.33 1428.2l0 -256l256 0l0 256Z"/>
      <path fill-rule="evenodd" d="M1763.33 1684.2l0 -256l256 0l0 256Z"/>
      <path fill-rule="evenodd" d="M1763.33 1940.2l0 -256l256 0l0 256Z"/>
      <path fill-rule="evenodd" d="M1763.33 2196.2l0 -256l256 0l0 256Z"/>
      <path fill-rule="evenodd" d="M1763.33 2358.3l0 -162.1l256 0l0 162.1Z"/>
      <path fill-rule="evenodd" d="M2019.33 148.2l0 -148.2l249.67 0l0 148.2Z"/>
      <path fill-rule="evenodd" d="M2019.33 404.2l0 -256l249.67 0l0 256Z"/>
      <path fill-rule="evenodd" d="M2019.33 660.2l0 -256l249.67 0l0 256Z"/>
      <path fill-rule="evenodd" d="M2019.33 916.2l0 -256l249.67 0l0 256Z"/>
      <path fill-rule="evenodd" d="M2019.33 1172.2l0 -256l249.67 0l0 256Z"/>
      <path fill-rule="evenodd" d="M2019.33 1428.2l0 -256l249.67 0l0 256Z"/>
      <path fill-rule="evenodd" d="M2019.33 1684.2l0 -256l249.67 0l0 256Z"/>
      <path fill-rule="evenodd" d="M2019.33 1940.2l0 -256l249.67 0l0 256Z"/>
      <path fill-rule="evenodd" d="M2019.33 2196.2l0 -256l249.67 0l0 256Z"/>
      <path fill-rule="evenodd" d="M2019.33 2358.3l0 -162.1l249.67 0l0 162.1Z"/>
    </g>
  </g>
</svg>