<?xml version="1.0" encoding="UTF-8"?>
<svg xmlns="http://www.w3.org/2000/svg" xmlns:xlink="http://www.w3.org/1999/xlink" viewBox="0 0 2269 2358.3" width="2269" height="2358.3">
  <title>Köln — poi_ruin</title>
  <desc>Map data © OpenStreetMap contributors, ODbL 1.0</desc>
  <g id="poi_ruin">
    <g id="poi_ruin__aqueduct">
      <circle cx="991.27" cy="1279.7" r="3" fill="#8A6F4B" stroke="none"/>
      <text x="996.27" y="1283.2" font-family="Inter, Helvetica, Arial, sans-serif" font-size="11" fill="#4A4438" stroke="none">Viadukt</text>
    </g>
    <g id="poi_ruin__archaeological_site">
      <circle cx="111.64" cy="308.2" r="3" fill="#8A6F4B" stroke="none"/>
      <circle cx="669.89" cy="1819.82" r="3" fill="#8A6F4B" stroke="none"/>
      <text x="674.89" y="1823.32" font-family="Inter, Helvetica, Arial, sans-serif" font-size="11" fill="#4A4438" stroke="none">Aufschluss der römischen Wasserleitung</text>
      <circle cx="618.89" cy="1905.7" r="3" fill="#8A6F4B" stroke="none"/>
      <text x="623.89" y="1909.2" font-family="Inter, Helvetica, Arial, sans-serif" font-size="11" fill="#4A4438" stroke="none">Aufschluss der römischen Wasserleitung</text>
      <circle cx="669.77" cy="1819.64" r="3" fill="#8A6F4B" stroke="none"/>
      <circle cx="689.02" cy="1947.95" r="3" fill="#8A6F4B" stroke="none"/>
      <circle cx="921.58" cy="1790.01" r="3" fill="#8A6F4B" stroke="none"/>
      <text x="926.58" y="1793.51" font-family="Inter, Helvetica, Arial, sans-serif" font-size="11" fill="#4A4438" stroke="none">Römische Grabkammer</text>
      <circle cx="1153.08" cy="1363.57" r="3" fill="#8A6F4B" stroke="none"/>
      <text x="1158.08" y="1367.07" font-family="Inter, Helvetica, Arial, sans-serif" font-size="11" fill="#4A4438" stroke="none">Römisches Osttor</text>
      <circle cx="1084.14" cy="1361.64" r="3" fill="#8A6F4B" stroke="none"/>
      <text x="1089.14" y="1365.14" font-family="Inter, Helvetica, Arial, sans-serif" font-size="11" fill="#4A4438" stroke="none">Archäologische Zone / Neubau Jüdisches Museum „MiQua“</text>
      <circle cx="1082.02" cy="1351.01" r="3" fill="#8A6F4B" stroke="none"/>
      <text x="1087.02" y="1354.51" font-family="Inter, Helvetica, Arial, sans-serif" font-size="11" fill="#4A4438" stroke="none">Römischer Abwasserkanal</text>
      <circle cx="1086.27" cy="1339.95" r="3" fill="#8A6F4B" stroke="none"/>
      <text x="1091.27" y="1343.45" font-family="Inter, Helvetica, Arial, sans-serif" font-size="11" fill="#4A4438" stroke="none">Römische Hafenstraße</text>
      <circle cx="1072.27" cy="1329.07" r="3" fill="#8A6F4B" stroke="none"/>
      <text x="1077.27" y="1332.57" font-family="Inter, Helvetica, Arial, sans-serif" font-size="11" fill="#4A4438" stroke="none">Römisches Nordtor</text>
      <circle cx="1086.27" cy="1357.7" r="3" fill="#8A6F4B" stroke="none"/>
      <text x="1091.27" y="1361.2" font-family="Inter, Helvetica, Arial, sans-serif" font-size="11" fill="#4A4438" stroke="none">Rathausplatz / Archäologische Zone</text>
      <circle cx="1143.52" cy="1362.32" r="3" fill="#8A6F4B" stroke="none"/>
      <text x="1148.52" y="1365.82" font-family="Inter, Helvetica, Arial, sans-serif" font-size="11" fill="#4A4438" stroke="none">Drehscheibe des Bahnhofs Schiffbrücke</text>
      <circle cx="1086.14" cy="1351.64" r="3" fill="#8A6F4B" stroke="none"/>
      <text x="1091.14" y="1355.14" font-family="Inter, Helvetica, Arial, sans-serif" font-size="11" fill="#4A4438" stroke="none">Praetorium</text>
      <circle cx="1141.77" cy="1362.45" r="3" fill="#8A6F4B" stroke="none"/>
      <text x="1146.77" y="1365.95" font-family="Inter, Helvetica, Arial, sans-serif" font-size="11" fill="#4A4438" stroke="none">Reste des röm. Kastell-Westtores</text>
      <circle cx="1014.2" cy="1417.51" r="3" fill="#8A6F4B" stroke="none"/>
      <text x="1019.2" y="1421.01" font-family="Inter, Helvetica, Arial, sans-serif" font-size="11" fill="#4A4438" stroke="none">Broelmanturm</text>
      <circle cx="1084.45" cy="1335.7" r="3" fill="#8A6F4B" stroke="none"/>
      <text x="1089.45" y="1339.2" font-family="Inter, Helvetica, Arial, sans-serif" font-size="11" fill="#4A4438" stroke="none">Dionysosmosaik</text>
      <circle cx="1055.58" cy="1380.82" r="3" fill="#8A6F4B" stroke="none"/>
      <circle cx="1191.14" cy="1787.14" r="3" fill="#8A6F4B" stroke="none"/>
      <text x="1196.14" y="1790.64" font-family="Inter, Helvetica, Arial, sans-serif" font-size="11" fill="#4A4438" stroke="none">Fort VIII</text>
      <circle cx="1370.08" cy="610.76" r="3" fill="#8A6F4B" stroke="none"/>
      <text x="1375.08" y="614.26" font-family="Inter, Helvetica, Arial, sans-serif" font-size="11" fill="#4A4438" stroke="none">Motte Kurtekotten</text>
      <circle cx="1700.58" cy="932.64" r="3" fill="#8A6F4B" stroke="none"/>
      <text x="1705.58" y="936.14" font-family="Inter, Helvetica, Arial, sans-serif" font-size="11" fill="#4A4438" stroke="none">Hünengräber</text>
      <circle cx="1753.08" cy="1123.51" r="3" fill="#8A6F4B" stroke="none"/>
      <circle cx="1938.45" cy="1518.2" r="3" fill="#8A6F4B" stroke="none"/>
      <circle cx="1980.45" cy="1553.14" r="3" fill="#8A6F4B" stroke="none"/>
      <circle cx="1986.45" cy="1544.32" r="3" fill="#8A6F4B" stroke="none"/>
      <circle cx="1966.64" cy="1542.14" r="3" fill="#8A6F4B" stroke="none"/>
      <circle cx="1975.02" cy="1541.14" r="3" fill="#8A6F4B" stroke="none"/>
      <circle cx="1998.95" cy="1537.57" r="3" fill="#8A6F4B" stroke="none"/>
      <circle cx="1973.89" cy="1537.14" r="3" fill="#8A6F4B" stroke="none"/>
      <circle cx="1969.14" cy="1535.32" r="3" fill="#8A6F4B" stroke="none"/>
      <circle cx="1933.45" cy="1521.01" r="3" fill="#8A6F4B" stroke="none"/>
      <circle cx="1938.7" cy="1520.45" r="3" fill="#8A6F4B" stroke="none"/>
      <circle cx="1932.64" cy="1520.26" r="3" fill="#8A6F4B" stroke="none"/>
      <circle cx="1929.39" cy="1520.07" r="3" fill="#8A6F4B" stroke="none"/>
      <circle cx="1934.45" cy="1519.26" r="3" fill="#8A6F4B" stroke="none"/>
      <circle cx="1943.27" cy="1518.64" r="3" fill="#8A6F4B" stroke="none"/>
      <circle cx="1935.39" cy="1517.39" r="3" fill="#8A6F4B" stroke="none"/>
      <circle cx="1930.77" cy="1517.01" r="3" fill="#8A6F4B" stroke="none"/>
      <circle cx="1944.52" cy="1516.26" r="3" fill="#8A6F4B" stroke="none"/>
      <circle cx="1932.27" cy="1516.14" r="3" fill="#8A6F4B" stroke="none"/>
      <circle cx="1948.89" cy="1515.82" r="3" fill="#8A6F4B" stroke="none"/>
      <circle cx="1944.95" cy="1513.7" r="3" fill="#8A6F4B" stroke="none"/>
      <circle cx="2156.89" cy="97.14" r="3" fill="#8A6F4B" stroke="none"/>
      <text x="2161.89" y="100.64" font-family="Inter, Helvetica, Arial, sans-serif" font-size="11" fill="#4A4438" stroke="none">Ringwall Eifgenburg</text>
      <circle cx="2022.45" cy="356.2" r="3" fill="#8A6F4B" stroke="none"/>
      <text x="2027.45" y="359.7" font-family="Inter, Helvetica, Arial, sans-serif" font-size="11" fill="#4A4438" stroke="none">Wallanlage Alte Burg Erberich</text>
      <circle cx="2077.08" cy="313.45" r="3" fill="#8A6F4B" stroke="none"/>
      <text x="2082.08" y="316.95" font-family="Inter, Helvetica, Arial, sans-serif" font-size="11" fill="#4A4438" stroke="none">Burg Berge</text>
      <circle cx="2045.14" cy="298.39" r="3" fill="#8A6F4B" stroke="none"/>
      <text x="2050.14" y="301.89" font-family="Inter, Helvetica, Arial, sans-serif" font-size="11" fill="#4A4438" stroke="none">Bodendenkmal Rösberg</text>
      <circle cx="2102.45" cy="574.64" r="3" fill="#8A6F4B" stroke="none"/>
      <text x="2107.45" y="578.14" font-family="Inter, Helvetica, Arial, sans-serif" font-size="11" fill="#4A4438" stroke="none">Motte Wiebershausen/Niederscherf</text>
      <circle cx="2185.64" cy="752.45" r="3" fill="#8A6F4B" stroke="none"/>
      <text x="2190.64" y="755.95" font-family="Inter, Helvetica, Arial, sans-serif" font-size="11" fill="#4A4438" stroke="none">Korallenwald</text>
      <circle cx="2219.39" cy="753.01" r="3" fill="#8A6F4B" stroke="none"/>
      <circle cx="2110.95" cy="1097.57" r="3" fill="#8A6F4B" stroke="none"/>
      <text x="2115.95" y="1101.07" font-family="Inter, Helvetica, Arial, sans-serif" font-size="11" fill="#4A4438" stroke="none">Motte Saaler Mühle</text>
      <circle cx="2182.52" cy="1461.26" r="3" fill="#8A6F4B" stroke="none"/>
      <circle cx="2184.2" cy="1460.07" r="3" fill="#8A6F4B" stroke="none"/>
      <circle cx="2103.95" cy="1646.7" r="3" fill="#8A6F4B" stroke="none"/>
      <circle cx="2111.7" cy="1646.32" r="3" fill="#8A6F4B" stroke="none"/>
      <circle cx="2100.83" cy="1646.01" r="3" fill="#8A6F4B" stroke="none"/>
      <circle cx="2103.7" cy="1644.51" r="3" fill="#8A6F4B" stroke="none"/>
      <circle cx="2113.08" cy="1643.7" r="3" fill="#8A6F4B" stroke="none"/>
      <circle cx="2106.89" cy="1637.76" r="3" fill="#8A6F4B" stroke="none"/>
      <circle cx="2106.14" cy="1642.32" r="3" fill="#8A6F4B" stroke="none"/>
      <circle cx="2103.83" cy="1641.89" r="3" fill="#8A6F4B" stroke="none"/>
      <circle cx="2108.52" cy="1641.32" r="3" fill="#8A6F4B" stroke="none"/>
      <circle cx="2113.45" cy="1640.45" r="3" fill="#8A6F4B" stroke="none"/>
      <circle cx="2107.64" cy="1639.64" r="3" fill="#8A6F4B" stroke="none"/>
      <circle cx="2106.14" cy="1639.01" r="3" fill="#8A6F4B" stroke="none"/>
      <circle cx="2108.52" cy="1637.39" r="3" fill="#8A6F4B" stroke="none"/>
      <circle cx="2110.02" cy="1635.32" r="3" fill="#8A6F4B" stroke="none"/>
      <circle cx="2109.27" cy="1632.14" r="3" fill="#8A6F4B" stroke="none"/>
      <circle cx="2106.27" cy="1627.07" r="3" fill="#8A6F4B" stroke="none"/>
      <circle cx="2103.39" cy="1626.51" r="3" fill="#8A6F4B" stroke="none"/>
      <circle cx="2103.52" cy="1622.95" r="3" fill="#8A6F4B" stroke="none"/>
      <circle cx="2097.58" cy="1622.2" r="3" fill="#8A6F4B" stroke="none"/>
      <circle cx="2109.2" cy="1619.2" r="3" fill="#8A6F4B" stroke="none"/>
      <circle cx="2091.33" cy="1618.01" r="3" fill="#8A6F4B" stroke="none"/>
      <circle cx="2104.58" cy="1617.57" r="3" fill="#8A6F4B" stroke="none"/>
      <circle cx="2099.14" cy="1617.39" r="3" fill="#8A6F4B" stroke="none"/>
      <circle cx="2096.33" cy="1617.32" r="3" fill="#8A6F4B" stroke="none"/>
      <circle cx="2088.58" cy="1599.26" r="3" fill="#8A6F4B" stroke="none"/>
      <circle cx="2069.95" cy="1595.95" r="3" fill="#8A6F4B" stroke="none"/>
      <circle cx="2074.33" cy="1595.57" r="3" fill="#8A6F4B" stroke="none"/>
      <circle cx="2089.2" cy="1593.2" r="3" fill="#8A6F4B" stroke="none"/>
      <circle cx="2084.33" cy="1592.32" r="3" fill="#8A6F4B" stroke="none"/>
      <circle cx="2087.02" cy="1591.95" r="3" fill="#8A6F4B" stroke="none"/>
      <circle cx="2088.7" cy="1586.45" r="3" fill="#8A6F4B" stroke="none"/>
      <circle cx="2087.33" cy="1584.14" r="3" fill="#8A6F4B" stroke="none"/>
      <circle cx="2122.02" cy="1741.39" r="3" fill="#8A6F4B" stroke="none"/>
      <circle cx="2121.45" cy="1734.57" r="3" fill="#8A6F4B" stroke="none"/>
      <circle cx="2163.64" cy="1730.07" r="3" fill="#8A6F4B" stroke="none"/>
    </g>
    <g id="poi_ruin__citywalls">
      <circle cx="1013.2" cy="1342.7" r="3" fill="#8A6F4B" stroke="none"/>
      <text x="1018.2" y="1346.2" font-family="Inter, Helvetica, Arial, sans-serif" font-size="11" fill="#4A4438" stroke="none">Helenenturm</text>
      <circle cx="1042.45" cy="1425.51" r="3" fill="#8A6F4B" stroke="none"/>
      <text x="1047.45" y="1429.01" font-family="Inter, Helvetica, Arial, sans-serif" font-size="11" fill="#4A4438" stroke="none">Turm am Blaubach</text>
    </g>
    <g id="poi_ruin__fort">
      <circle cx="1482.7" cy="1529.45" r="3" fill="#8A6F4B" stroke="none"/>
      <text x="1487.7" y="1532.95" font-family="Inter, Helvetica, Arial, sans-serif" font-size="11" fill="#4A4438" stroke="none">Zwischenwerk IX b</text>
      <circle cx="1450.7" cy="1620.7" r="3" fill="#8A6F4B" stroke="none"/>
      <text x="1455.7" y="1624.2" font-family="Inter, Helvetica, Arial, sans-serif" font-size="11" fill="#4A4438" stroke="none">Fort IX</text>
      <circle cx="1354.7" cy="1696.07" r="3" fill="#8A6F4B" stroke="none"/>
      <text x="1359.7" y="1699.57" font-family="Inter, Helvetica, Arial, sans-serif" font-size="11" fill="#4A4438" stroke="none">Zwischenwerk IXa</text>
      <circle cx="1682.2" cy="1270.64" r="3" fill="#8A6F4B" stroke="none"/>
      <text x="1687.2" y="1274.14" font-family="Inter, Helvetica, Arial, sans-serif" font-size="11" fill="#4A4438" stroke="none">Fliehburg Merheim</text>
    </g>
    <g id="poi_ruin__ruins">
      <circle cx="325.08" cy="722.57" r="3" fill="#8A6F4B" stroke="none"/>
      <text x="330.08" y="726.07" font-family="Inter, Helvetica, Arial, sans-serif" font-size="11" fill="#4A4438" stroke="none">Haus Orr</text>
      <circle cx="323.52" cy="721.39" r="3" fill="#8A6F4B" stroke="none"/>
      <circle cx="710.14" cy="327.45" r="3" fill="#8A6F4B" stroke="none"/>
      <text x="715.14" y="330.95" font-family="Inter, Helvetica, Arial, sans-serif" font-size="11" fill="#4A4438" stroke="none">Flak-Stellung</text>
      <circle cx="554.33" cy="901.01" r="3" fill="#8A6F4B" stroke="none"/>
      <circle cx="525.14" cy="913.01" r="3" fill="#8A6F4B" stroke="none"/>
      <circle cx="514.95" cy="1112.76" r="3" fill="#8A6F4B" stroke="none"/>
      <circle cx="553.58" cy="1191.32" r="3" fill="#8A6F4B" stroke="none"/>
      <text x="558.58" y="1194.82" font-family="Inter, Helvetica, Arial, sans-serif" font-size="11" fill="#4A4438" stroke="none">WWII FLAK Stellung</text>
      <circle cx="562.33" cy="1203.45" r="3" fill="#8A6F4B" stroke="none"/>
      <text x="567.33" y="1206.95" font-family="Inter, Helvetica, Arial, sans-serif" font-size="11" fill="#4A4438" stroke="none">WWII FLAK Bunker</text>
      <circle cx="630.14" cy="1871.64" r="3" fill="#8A6F4B" stroke="none"/>
      <text x="635.14" y="1875.14" font-family="Inter, Helvetica, Arial, sans-serif" font-size="11" fill="#4A4438" stroke="none">Burgtor Hermülheim</text>
      <circle cx="719.7" cy="2084.2" r="3" fill="#8A6F4B" stroke="none"/>
      <text x="724.7" y="2087.7" font-family="Inter, Helvetica, Arial, sans-serif" font-size="11" fill="#4A4438" stroke="none">Burg Fischenich (Ruine)</text>
      <circle cx="777.27" cy="498.2" r="3" fill="#8A6F4B" stroke="none"/>
      <text x="782.27" y="501.7" font-family="Inter, Helvetica, Arial, sans-serif" font-size="11" fill="#4A4438" stroke="none">Gestüt Oppenheim ( ehem.)</text>
      <circle cx="1082.08" cy="1371.2" r="3" fill="#8A6F4B" stroke="none"/>
      <text x="1087.08" y="1374.7" font-family="Inter, Helvetica, Arial, sans-serif" font-size="11" fill="#4A4438" stroke="none">Alt St. Alban</text>
      <circle cx="1026.58" cy="1332.64" r="3" fill="#8A6F4B" stroke="none"/>
      <text x="1031.58" y="1336.14" font-family="Inter, Helvetica, Arial, sans-serif" font-size="11" fill="#4A4438" stroke="none">Römermauer am Zeughaus</text>
      <circle cx="1014.33" cy="1334.01" r="3" fill="#8A6F4B" stroke="none"/>
      <text x="1019.33" y="1337.51" font-family="Inter, Helvetica, Arial, sans-serif" font-size="11" fill="#4A4438" stroke="none">Römerturm</text>
      <circle cx="1087.77" cy="1329.32" r="3" fill="#8A6F4B" stroke="none"/>
      <text x="1092.77" y="1332.82" font-family="Inter, Helvetica, Arial, sans-serif" font-size="11" fill="#4A4438" stroke="none">St. Maria ad Gradus</text>
      <circle cx="1141.39" cy="1360.2" r="3" fill="#8A6F4B" stroke="none"/>
      <text x="1146.39" y="1363.7" font-family="Inter, Helvetica, Arial, sans-serif" font-size="11" fill="#4A4438" stroke="none">Bahndammmauerreste der Bergisch-Märkischen Eisenbahngesellschaft</text>
      <circle cx="1142.08" cy="1361.64" r="3" fill="#8A6F4B" stroke="none"/>
      <text x="1147.08" y="1365.14" font-family="Inter, Helvetica, Arial, sans-serif" font-size="11" fill="#4A4438" stroke="none">Alt St. Urban Grundmauern Turmhaus</text>
      <circle cx="1085.64" cy="1384.57" r="3" fill="#8A6F4B" stroke="none"/>
      <text x="1090.64" y="1388.07" font-family="Inter, Helvetica, Arial, sans-serif" font-size="11" fill="#4A4438" stroke="none">Römischer Tempelaufgang</text>
      <circle cx="1089.89" cy="1330.07" r="3" fill="#8A6F4B" stroke="none"/>
      <text x="1094.89" y="1333.57" font-family="Inter, Helvetica, Arial, sans-serif" font-size="11" fill="#4A4438" stroke="none">Baptisterium</text>
      <circle cx="1038.14" cy="1343.76" r="3" fill="#8A6F4B" stroke="none"/>
      <text x="1043.14" y="1347.26" font-family="Inter, Helvetica, Arial, sans-serif" font-size="11" fill="#4A4438" stroke="none">Sandsteinportal</text>
      <circle cx="1087.64" cy="1339.64" r="3" fill="#8A6F4B" stroke="none"/>
      <text x="1092.64" y="1343.14" font-family="Inter, Helvetica, Arial, sans-serif" font-size="11" fill="#4A4438" stroke="none">Brunnenfassung</text>
      <circle cx="1052.39" cy="1329.45" r="3" fill="#8A6F4B" stroke="none"/>
      <text x="1057.39" y="1332.95" font-family="Inter, Helvetica, Arial, sans-serif" font-size="11" fill="#4A4438" stroke="none">Lysolphturm</text>
      <circle cx="1054.27" cy="1372.76" r="3" fill="#8A6F4B" stroke="none"/>
      <text x="1059.27" y="1376.26" font-family="Inter, Helvetica, Arial, sans-serif" font-size="11" fill="#4A4438" stroke="none">Römisches Forum</text>
      <circle cx="1104.08" cy="1487.95" r="3" fill="#8A6F4B" stroke="none"/>
      <text x="1109.08" y="1491.45" font-family="Inter, Helvetica, Arial, sans-serif" font-size="11" fill="#4A4438" stroke="none">Schornsteinstumpf Stollwerck-Fabrik</text>
      <circle cx="1083.2" cy="1435.51" r="3" fill="#8A6F4B" stroke="none"/>
      <circle cx="1104.02" cy="1492.51" r="3" fill="#8A6F4B" stroke="none"/>
      <circle cx="1452.83" cy="993.82" r="3" fill="#8A6F4B" stroke="none"/>
      <text x="1457.83" y="997.32" font-family="Inter, Helvetica, Arial, sans-serif" font-size="11" fill="#4A4438" stroke="none">Zwischenwerk XI b</text>
      <circle cx="1476.7" cy="1049.82" r="3" fill="#8A6F4B" stroke="none"/>
      <circle cx="1503.14" cy="1790.51" r="3" fill="#8A6F4B" stroke="none"/>
      <circle cx="1662.14" cy="864.2" r="3" fill="#8A6F4B" stroke="none"/>
      <text x="1667.14" y="867.7" font-family="Inter, Helvetica, Arial, sans-serif" font-size="11" fill="#4A4438" stroke="none">Schießplatz Dünnwald</text>
      <circle cx="1516.2" cy="1272.45" r="3" fill="#8A6F4B" stroke="none"/>
      <circle cx="1515.64" cy="1272.01" r="3" fill="#8A6F4B" stroke="none"/>
      <circle cx="1735.89" cy="1532.2" r="3" fill="#8A6F4B" stroke="none"/>
      <circle cx="1748.52" cy="1544.57" r="3" fill="#8A6F4B" stroke="none"/>
      <circle cx="1734.89" cy="2276.07" r="3" fill="#8A6F4B" stroke="none"/>
      <circle cx="2186.7" cy="397.32" r="3" fill="#8A6F4B" stroke="none"/>
      <circle cx="2093.27" cy="876.01" r="3" fill="#8A6F4B" stroke="none"/>
      <circle cx="2053.2" cy="1173.39" r="3" fill="#8A6F4B" stroke="none"/>
      <text x="2058.2" y="1176.89" font-family="Inter, Helvetica, Arial, sans-serif" font-size="11" fill="#4A4438" stroke="none">Motte Kippekausen</text>
      <circle cx="2069.52" cy="1280.57" r="3" fill="#8A6F4B" stroke="none"/>
      <text x="2074.52" y="1284.07" font-family="Inter, Helvetica, Arial, sans-serif" font-size="11" fill="#4A4438" stroke="none">Ruine Lokschuppen Munitionsbahn</text>
      <circle cx="2054.02" cy="1272.64" r="3" fill="#8A6F4B" stroke="none"/>
      <circle cx="2103.83" cy="1231.32" r="3" fill="#8A6F4B" stroke="none"/>
      <circle cx="2066.58" cy="1302.82" r="3" fill="#8A6F4B" stroke="none"/>
      <circle cx="2063.7" cy="1274.32" r="3" fill="#8A6F4B" stroke="none"/>
      <circle cx="2061.08" cy="1317.95" r="3" fill="#8A6F4B" stroke="none"/>
      <circle cx="2095.33" cy="1302.2" r="3" fill="#8A6F4B" stroke="none"/>
      <circle cx="2125.2" cy="1284.26" r="3" fill="#8A6F4B" stroke="none"/>
      <circle cx="2262.52" cy="1408.64" r="3" fill="#8A6F4B" stroke="none"/>
      <circle cx="2165.95" cy="1822.14" r="3" fill="#8A6F4B" stroke="none"/>
      <circle cx="2168.08" cy="1826.2" r="3" fill="#8A6F4B" stroke="none"/>
      <circle cx="2184.08" cy="2170.2" r="3" fill="#8A6F4B" stroke="none"/>
      <circle cx="2262.14" cy="2331.14" r="3" fill="#8A6F4B" stroke="none"/>
      <circle cx="2224.27" cy="2317.89" r="3" fill="#8A6F4B" stroke="none"/>
      <circle cx="2258.95" cy="2293.76" r="3" fill="#8A6F4B" stroke="none"/>
      <circle cx="2252.2" cy="2213.7" r="3" fill="#8A6F4B" stroke="none"/>
    </g>
    <g id="poi_ruin__settling_basin">
      <circle cx="797.52" cy="1668.01" r="3" fill="#8A6F4B" stroke="none"/>
      <text x="802.52" y="1671.51" font-family="Inter, Helvetica, Arial, sans-serif" font-size="11" fill="#4A4438" stroke="none">Absetzbecken Duffesbach</text>
    </g>
    <g id="poi_ruin__technical_monument">
      <circle cx="2197.08" cy="8.26" r="3" fill="#8A6F4B" stroke="none"/>
      <text x="2202.08" y="11.76" font-family="Inter, Helvetica, Arial, sans-serif" font-size="11" fill="#4A4438" stroke="none">Burscheider Talsperre</text>
    </g>
    <g id="poi_ruin__tower">
      <circle cx="441.7" cy="891.01" r="3" fill="#8A6F4B" stroke="none"/>
      <text x="446.7" y="894.51" font-family="Inter, Helvetica, Arial, sans-serif" font-size="11" fill="#4A4438" stroke="none">Aussichtsturm</text>
    </g>
    <g id="poi_ruin__yes">
      <circle cx="904.52" cy="1311.82" r="3" fill="#8A6F4B" stroke="none"/>
      <circle cx="1087.58" cy="1400.95" r="3" fill="#8A6F4B" stroke="none"/>
    </g>
  </g>
</svg>