<?xml version="1.0" encoding="UTF-8"?>
<svg xmlns="http://www.w3.org/2000/svg" xmlns:xlink="http://www.w3.org/1999/xlink" viewBox="0 0 2269 2358.3" width="2269" height="2358.3">
  <title>Köln — poi_viewpoint</title>
  <desc>Map data © OpenStreetMap contributors, ODbL 1.0</desc>
  <g id="poi_viewpoint">
    <g id="poi_viewpoint__viewpoint">
      <circle cx="28.52" cy="1286.57" r="3" fill="#8A6F4B" stroke="none"/>
      <text x="33.52" y="1290.07" font-family="Inter, Helvetica, Arial, sans-serif" font-size="11" fill="#4A4438" stroke="none">Blick auf Köln Schlittberg</text>
      <circle cx="88.58" cy="1508.26" r="3" fill="#8A6F4B" stroke="none"/>
      <text x="93.58" y="1511.76" font-family="Inter, Helvetica, Arial, sans-serif" font-size="11" fill="#4A4438" stroke="none">Quarzwerke Frechen</text>
      <circle cx="1.02" cy="1504.45" r="3" fill="#8A6F4B" stroke="none"/>
      <text x="6.02" y="1507.95" font-family="Inter, Helvetica, Arial, sans-serif" font-size="11" fill="#4A4438" stroke="none">Quarzgrube</text>
      <circle cx="107.33" cy="1887.14" r="3" fill="#8A6F4B" stroke="none"/>
      <text x="112.33" y="1890.64" font-family="Inter, Helvetica, Arial, sans-serif" font-size="11" fill="#4A4438" stroke="none">Wilhelmshöhe</text>
      <circle cx="370.58" cy="920.01" r="3" fill="#8A6F4B" stroke="none"/>
      <text x="375.58" y="923.51" font-family="Inter, Helvetica, Arial, sans-serif" font-size="11" fill="#4A4438" stroke="none">Aussichtspunkt Pulheimer See</text>
      <circle cx="463.33" cy="1119.89" r="3" fill="#8A6F4B" stroke="none"/>
      <text x="468.33" y="1123.39" font-family="Inter, Helvetica, Arial, sans-serif" font-size="11" fill="#4A4438" stroke="none">Belvedere Domblick</text>
      <circle cx="475.02" cy="1190.45" r="3" fill="#8A6F4B" stroke="none"/>
      <text x="480.02" y="1193.95" font-family="Inter, Helvetica, Arial, sans-serif" font-size="11" fill="#4A4438" stroke="none">Belvedere Blickfang</text>
      <circle cx="418.27" cy="1879.76" r="3" fill="#8A6F4B" stroke="none"/>
      <circle cx="265.14" cy="1764.2" r="3" fill="#8A6F4B" stroke="none"/>
      <circle cx="308.27" cy="1956.2" r="3" fill="#8A6F4B" stroke="none"/>
      <circle cx="303.02" cy="1976.64" r="3" fill="#8A6F4B" stroke="none"/>
      <circle cx="571.39" cy="750.76" r="3" fill="#8A6F4B" stroke="none"/>
      <text x="576.39" y="754.26" font-family="Inter, Helvetica, Arial, sans-serif" font-size="11" fill="#4A4438" stroke="none">Escher See Süd: Einzigartige Vielfalt</text>
      <circle cx="517.58" cy="1116.2" r="3" fill="#8A6F4B" stroke="none"/>
      <text x="522.58" y="1119.7" font-family="Inter, Helvetica, Arial, sans-serif" font-size="11" fill="#4A4438" stroke="none">Belvedere Felderblick</text>
      <circle cx="671.33" cy="1410.26" r="3" fill="#8A6F4B" stroke="none"/>
      <text x="676.33" y="1413.76" font-family="Inter, Helvetica, Arial, sans-serif" font-size="11" fill="#4A4438" stroke="none">Dreizehn-Linden-Platz</text>
      <circle cx="643.02" cy="1246.51" r="3" fill="#8A6F4B" stroke="none"/>
      <text x="648.02" y="1250.01" font-family="Inter, Helvetica, Arial, sans-serif" font-size="11" fill="#4A4438" stroke="none">Höchster Punkt Vogelsangs</text>
      <circle cx="546.39" cy="1188.01" r="3" fill="#8A6F4B" stroke="none"/>
      <text x="551.39" y="1191.51" font-family="Inter, Helvetica, Arial, sans-serif" font-size="11" fill="#4A4438" stroke="none">Belvedere Ausblick</text>
      <circle cx="657.33" cy="1419.51" r="3" fill="#8A6F4B" stroke="none"/>
      <circle cx="657.33" cy="1974.14" r="3" fill="#8A6F4B" stroke="none"/>
      <circle cx="658.33" cy="1996.76" r="3" fill="#8A6F4B" stroke="none"/>
      <circle cx="627.33" cy="1976.89" r="3" fill="#8A6F4B" stroke="none"/>
      <circle cx="571.45" cy="1996.7" r="3" fill="#8A6F4B" stroke="none"/>
      <circle cx="787.58" cy="475.82" r="3" fill="#8A6F4B" stroke="none"/>
      <circle cx="787.64" cy="483.39" r="3" fill="#8A6F4B" stroke="none"/>
      <circle cx="924.2" cy="927.51" r="3" fill="#8A6F4B" stroke="none"/>
      <circle cx="881.02" cy="1637.89" r="3" fill="#8A6F4B" stroke="none"/>
      <circle cx="870.95" cy="1625.95" r="3" fill="#8A6F4B" stroke="none"/>
      <circle cx="815.89" cy="1781.26" r="3" fill="#8A6F4B" stroke="none"/>
      <circle cx="820.83" cy="1800.51" r="3" fill="#8A6F4B" stroke="none"/>
      <circle cx="828.39" cy="1806.51" r="3" fill="#8A6F4B" stroke="none"/>
      <circle cx="961.89" cy="2162.01" r="3" fill="#8A6F4B" stroke="none"/>
      <circle cx="1154.77" cy="511.01" r="3" fill="#8A6F4B" stroke="none"/>
      <circle cx="1094.83" cy="821.51" r="3" fill="#8A6F4B" stroke="none"/>
      <circle cx="1092.7" cy="826.51" r="3" fill="#8A6F4B" stroke="none"/>
      <circle cx="1166.02" cy="1167.2" r="3" fill="#8A6F4B" stroke="none"/>
      <text x="1171.02" y="1170.7" font-family="Inter, Helvetica, Arial, sans-serif" font-size="11" fill="#4A4438" stroke="none">Zoo-Fenster</text>
      <circle cx="1198.52" cy="1125.82" r="3" fill="#8A6F4B" stroke="none"/>
      <circle cx="1201.58" cy="1129.07" r="3" fill="#8A6F4B" stroke="none"/>
      <circle cx="1201.39" cy="1130.2" r="3" fill="#8A6F4B" stroke="none"/>
      <circle cx="1145.14" cy="1157.82" r="3" fill="#8A6F4B" stroke="none"/>
      <circle cx="1153.77" cy="1130.26" r="3" fill="#8A6F4B" stroke="none"/>
      <circle cx="1142.58" cy="1154.7" r="3" fill="#8A6F4B" stroke="none"/>
      <circle cx="1148.02" cy="1158.07" r="3" fill="#8A6F4B" stroke="none"/>
      <circle cx="1131.39" cy="1330.89" r="3" fill="#8A6F4B" stroke="none"/>
      <text x="1136.39" y="1334.39" font-family="Inter, Helvetica, Arial, sans-serif" font-size="11" fill="#4A4438" stroke="none">Hohenzollernbrücke</text>
      <circle cx="1170.45" cy="1178.2" r="3" fill="#8A6F4B" stroke="none"/>
      <text x="1175.45" y="1181.7" font-family="Inter, Helvetica, Arial, sans-serif" font-size="11" fill="#4A4438" stroke="none">Zoo-Fenster</text>
      <circle cx="1169.77" cy="1177.57" r="3" fill="#8A6F4B" stroke="none"/>
      <text x="1174.77" y="1181.07" font-family="Inter, Helvetica, Arial, sans-serif" font-size="11" fill="#4A4438" stroke="none">Zoo-Fenster</text>
      <circle cx="1161.2" cy="1339.07" r="3" fill="#8A6F4B" stroke="none"/>
      <text x="1166.2" y="1342.57" font-family="Inter, Helvetica, Arial, sans-serif" font-size="11" fill="#4A4438" stroke="none">KölnTriangle Cologne View</text>
      <circle cx="1142.45" cy="1332.57" r="3" fill="#8A6F4B" stroke="none"/>
      <circle cx="1117.39" cy="1408.07" r="3" fill="#8A6F4B" stroke="none"/>
      <circle cx="1076.77" cy="1331.76" r="3" fill="#8A6F4B" stroke="none"/>
      <circle cx="1161.58" cy="1267.57" r="3" fill="#8A6F4B" stroke="none"/>
      <circle cx="1141.89" cy="1232.32" r="3" fill="#8A6F4B" stroke="none"/>
      <circle cx="1115.95" cy="1283.26" r="3" fill="#8A6F4B" stroke="none"/>
      <circle cx="1123.39" cy="1264.51" r="3" fill="#8A6F4B" stroke="none"/>
      <circle cx="1157.95" cy="1212.82" r="3" fill="#8A6F4B" stroke="none"/>
      <circle cx="1142.14" cy="1364.01" r="3" fill="#8A6F4B" stroke="none"/>
      <circle cx="1142.33" cy="1323.89" r="3" fill="#8A6F4B" stroke="none"/>
      <circle cx="1143.77" cy="1316.95" r="3" fill="#8A6F4B" stroke="none"/>
      <circle cx="1151.77" cy="1364.14" r="3" fill="#8A6F4B" stroke="none"/>
      <circle cx="1171.33" cy="1553.82" r="3" fill="#8A6F4B" stroke="none"/>
      <text x="1176.33" y="1557.32" font-family="Inter, Helvetica, Arial, sans-serif" font-size="11" fill="#4A4438" stroke="none">Südbrücke</text>
      <circle cx="1124.7" cy="1475.95" r="3" fill="#8A6F4B" stroke="none"/>
      <circle cx="1125.7" cy="1472.95" r="3" fill="#8A6F4B" stroke="none"/>
      <circle cx="1248.02" cy="2185.14" r="3" fill="#8A6F4B" stroke="none"/>
      <circle cx="1311.33" cy="104.14" r="3" fill="#8A6F4B" stroke="none"/>
      <circle cx="1327.83" cy="1020.7" r="3" fill="#8A6F4B" stroke="none"/>
      <text x="1332.83" y="1024.2" font-family="Inter, Helvetica, Arial, sans-serif" font-size="11" fill="#4A4438" stroke="none">Alter Schlackehafen</text>
      <circle cx="1253.2" cy="1365.57" r="3" fill="#8A6F4B" stroke="none"/>
      <circle cx="1360.83" cy="1987.95" r="3" fill="#8A6F4B" stroke="none"/>
      <circle cx="1252.58" cy="2181.57" r="3" fill="#8A6F4B" stroke="none"/>
      <circle cx="1641.77" cy="79.32" r="3" fill="#8A6F4B" stroke="none"/>
      <circle cx="1728.77" cy="188.57" r="3" fill="#8A6F4B" stroke="none"/>
      <circle cx="1552.14" cy="617.01" r="3" fill="#8A6F4B" stroke="none"/>
      <circle cx="1530.95" cy="620.39" r="3" fill="#8A6F4B" stroke="none"/>
      <circle cx="1572.02" cy="635.45" r="3" fill="#8A6F4B" stroke="none"/>
      <circle cx="1530.33" cy="632.64" r="3" fill="#8A6F4B" stroke="none"/>
      <circle cx="1535.77" cy="643.76" r="3" fill="#8A6F4B" stroke="none"/>
      <circle cx="1636.2" cy="835.26" r="3" fill="#8A6F4B" stroke="none"/>
      <text x="1641.2" y="838.76" font-family="Inter, Helvetica, Arial, sans-serif" font-size="11" fill="#4A4438" stroke="none">Förster-Schreibweis-Kanzel</text>
      <circle cx="1666.52" cy="934.32" r="3" fill="#8A6F4B" stroke="none"/>
      <circle cx="1669.02" cy="947.2" r="3" fill="#8A6F4B" stroke="none"/>
      <circle cx="1610.58" cy="2294.07" r="3" fill="#8A6F4B" stroke="none"/>
      <circle cx="1630.58" cy="2271.07" r="3" fill="#8A6F4B" stroke="none"/>
      <circle cx="1873.52" cy="67.14" r="3" fill="#8A6F4B" stroke="none"/>
      <circle cx="1898.45" cy="153.7" r="3" fill="#8A6F4B" stroke="none"/>
      <circle cx="1879.2" cy="294.51" r="3" fill="#8A6F4B" stroke="none"/>
      <circle cx="1929.83" cy="772.76" r="3" fill="#8A6F4B" stroke="none"/>
      <circle cx="1972.14" cy="755.51" r="3" fill="#8A6F4B" stroke="none"/>
      <circle cx="1955.64" cy="1597.76" r="3" fill="#8A6F4B" stroke="none"/>
      <text x="1960.64" y="1601.26" font-family="Inter, Helvetica, Arial, sans-serif" font-size="11" fill="#4A4438" stroke="none">Aussicht auf Becken 3</text>
      <circle cx="1940.95" cy="1610.7" r="3" fill="#8A6F4B" stroke="none"/>
      <text x="1945.95" y="1614.2" font-family="Inter, Helvetica, Arial, sans-serif" font-size="11" fill="#4A4438" stroke="none">Aussicht auf Becken 3</text>
      <circle cx="1985.45" cy="1719.01" r="3" fill="#8A6F4B" stroke="none"/>
      <circle cx="1962.58" cy="1716.95" r="3" fill="#8A6F4B" stroke="none"/>
      <circle cx="2086.95" cy="270.2" r="3" fill="#8A6F4B" stroke="none"/>
      <text x="2091.95" y="273.7" font-family="Inter, Helvetica, Arial, sans-serif" font-size="11" fill="#4A4438" stroke="none">Prinzenblick</text>
      <circle cx="2102.14" cy="634.82" r="3" fill="#8A6F4B" stroke="none"/>
      <circle cx="2206.39" cy="648.14" r="3" fill="#8A6F4B" stroke="none"/>
      <circle cx="2089.27" cy="637.01" r="3" fill="#8A6F4B" stroke="none"/>
      <circle cx="2220.7" cy="653.95" r="3" fill="#8A6F4B" stroke="none"/>
      <circle cx="2087.7" cy="409.95" r="3" fill="#8A6F4B" stroke="none"/>
      <circle cx="2236.2" cy="660.76" r="3" fill="#8A6F4B" stroke="none"/>
      <circle cx="2231.14" cy="680.2" r="3" fill="#8A6F4B" stroke="none"/>
      <circle cx="2188.52" cy="1023.95" r="3" fill="#8A6F4B" stroke="none"/>
      <text x="2193.52" y="1027.45" font-family="Inter, Helvetica, Arial, sans-serif" font-size="11" fill="#4A4438" stroke="none">Grube Cox</text>
      <circle cx="2258.83" cy="1099.14" r="3" fill="#8A6F4B" stroke="none"/>
      <text x="2263.83" y="1102.64" font-family="Inter, Helvetica, Arial, sans-serif" font-size="11" fill="#4A4438" stroke="none">zur Stadt Köln</text>
      <circle cx="2192.64" cy="1030.51" r="3" fill="#8A6F4B" stroke="none"/>
      <circle cx="2040.83" cy="1908.57" r="3" fill="#8A6F4B" stroke="none"/>
      <text x="2045.83" y="1912.07" font-family="Inter, Helvetica, Arial, sans-serif" font-size="11" fill="#4A4438" stroke="none">Besucherterrasse</text>
      <circle cx="2078.39" cy="1688.14" r="3" fill="#8A6F4B" stroke="none"/>
      <circle cx="2032.27" cy="1714.95" r="3" fill="#8A6F4B" stroke="none"/>
      <circle cx="2261.77" cy="2003.01" r="3" fill="#8A6F4B" stroke="none"/>
      <text x="2266.77" y="2006.51" font-family="Inter, Helvetica, Arial, sans-serif" font-size="11" fill="#4A4438" stroke="none">Spotting Point</text>
      <circle cx="2162.33" cy="1947.51" r="3" fill="#8A6F4B" stroke="none"/>
      <text x="2167.33" y="1951.01" font-family="Inter, Helvetica, Arial, sans-serif" font-size="11" fill="#4A4438" stroke="none">Spotting Point am Anflugradar</text>
    </g>
  </g>
</svg>